<mxfile host="Electron" modified="2023-11-18T17:20:01.771Z" agent="Mozilla/5.0 (Windows NT 10.0; Win64; x64) AppleWebKit/537.36 (KHTML, like Gecko) draw.io/22.1.2 Chrome/114.0.5735.289 Electron/25.9.4 Safari/537.36" etag="P00O99cZVOUxgUEkrhpx" version="22.1.2" type="device">
  <diagram name="Page-1" id="2Y1soqMZpxU8L5cUPgLZ">
    <mxGraphModel dx="1687" dy="1040" grid="1" gridSize="10" guides="1" tooltips="1" connect="1" arrows="1" fold="1" page="1" pageScale="1" pageWidth="850" pageHeight="1100" math="0" shadow="0">
      <root>
        <mxCell id="0" />
        <mxCell id="1" parent="0" />
        <mxCell id="4rQDGgyVYOWiuucJBH0a-1" value="&lt;font size=&quot;1&quot; style=&quot;&quot;&gt;&lt;b style=&quot;font-size: 25px;&quot;&gt;RAM_2_DDR&lt;/b&gt;&lt;/font&gt;" style="rounded=0;whiteSpace=wrap;html=1;strokeWidth=4;" vertex="1" parent="1">
          <mxGeometry x="240" y="160" width="320" height="840" as="geometry" />
        </mxCell>
        <mxCell id="4rQDGgyVYOWiuucJBH0a-2" value="" style="endArrow=block;html=1;strokeWidth=2;endFill=1;rounded=0;" edge="1" parent="1">
          <mxGeometry width="50" height="50" relative="1" as="geometry">
            <mxPoint x="80" y="379" as="sourcePoint" />
            <mxPoint x="240" y="379" as="targetPoint" />
          </mxGeometry>
        </mxCell>
        <mxCell id="4rQDGgyVYOWiuucJBH0a-3" value="" style="endArrow=block;html=1;strokeWidth=2;endFill=1;rounded=0;" edge="1" parent="1">
          <mxGeometry width="50" height="50" relative="1" as="geometry">
            <mxPoint x="80" y="319" as="sourcePoint" />
            <mxPoint x="240" y="319" as="targetPoint" />
          </mxGeometry>
        </mxCell>
        <mxCell id="4rQDGgyVYOWiuucJBH0a-4" value="&lt;font size=&quot;1&quot; style=&quot;&quot;&gt;&lt;b style=&quot;font-size: 18px;&quot;&gt;CLK_200_I&lt;/b&gt;&lt;/font&gt;" style="text;html=1;strokeColor=none;fillColor=none;align=center;verticalAlign=middle;whiteSpace=wrap;rounded=0;fontSize=16;" vertex="1" parent="1">
          <mxGeometry x="120" y="289" width="70" height="30" as="geometry" />
        </mxCell>
        <mxCell id="4rQDGgyVYOWiuucJBH0a-5" value="&lt;font size=&quot;1&quot; style=&quot;&quot;&gt;&lt;b style=&quot;font-size: 18px;&quot;&gt;RST_I&lt;/b&gt;&lt;/font&gt;" style="text;html=1;strokeColor=none;fillColor=none;align=center;verticalAlign=middle;whiteSpace=wrap;rounded=0;fontSize=16;" vertex="1" parent="1">
          <mxGeometry x="130" y="349" width="70" height="30" as="geometry" />
        </mxCell>
        <mxCell id="4rQDGgyVYOWiuucJBH0a-6" value="" style="triangle;whiteSpace=wrap;html=1;strokeWidth=4;" vertex="1" parent="1">
          <mxGeometry x="240" y="309" width="20" height="25" as="geometry" />
        </mxCell>
        <mxCell id="4rQDGgyVYOWiuucJBH0a-9" value="" style="endArrow=block;html=1;strokeWidth=6;endFill=1;rounded=0;" edge="1" parent="1">
          <mxGeometry width="50" height="50" relative="1" as="geometry">
            <mxPoint x="80" y="499" as="sourcePoint" />
            <mxPoint x="240" y="499" as="targetPoint" />
          </mxGeometry>
        </mxCell>
        <mxCell id="4rQDGgyVYOWiuucJBH0a-10" value="&lt;font size=&quot;1&quot; style=&quot;&quot;&gt;&lt;b style=&quot;font-size: 18px;&quot;&gt;RAM_A&lt;/b&gt;&lt;/font&gt;" style="text;html=1;strokeColor=none;fillColor=none;align=center;verticalAlign=middle;whiteSpace=wrap;rounded=0;fontSize=16;" vertex="1" parent="1">
          <mxGeometry x="80" y="469" width="70" height="30" as="geometry" />
        </mxCell>
        <mxCell id="4rQDGgyVYOWiuucJBH0a-13" value="&lt;b style=&quot;&quot;&gt;&lt;sub style=&quot;&quot;&gt;&lt;font style=&quot;font-size: 15px;&quot;&gt;27&lt;/font&gt;&lt;/sub&gt;&lt;/b&gt;" style="text;html=1;strokeColor=none;fillColor=none;align=center;verticalAlign=middle;whiteSpace=wrap;rounded=0;fontSize=16;" vertex="1" parent="1">
          <mxGeometry x="200" y="469" width="20" height="22" as="geometry" />
        </mxCell>
        <mxCell id="4rQDGgyVYOWiuucJBH0a-14" value="" style="endArrow=none;html=1;rounded=0;strokeWidth=3;" edge="1" parent="1">
          <mxGeometry width="50" height="50" relative="1" as="geometry">
            <mxPoint x="190" y="511" as="sourcePoint" />
            <mxPoint x="200" y="491" as="targetPoint" />
          </mxGeometry>
        </mxCell>
        <mxCell id="4rQDGgyVYOWiuucJBH0a-49" value="" style="endArrow=block;html=1;strokeWidth=6;endFill=1;rounded=0;" edge="1" parent="1">
          <mxGeometry width="50" height="50" relative="1" as="geometry">
            <mxPoint x="80" y="439" as="sourcePoint" />
            <mxPoint x="240" y="439" as="targetPoint" />
          </mxGeometry>
        </mxCell>
        <mxCell id="4rQDGgyVYOWiuucJBH0a-50" value="&lt;font size=&quot;1&quot; style=&quot;&quot;&gt;&lt;b style=&quot;font-size: 18px;&quot;&gt;DEV_TMP_I&lt;/b&gt;&lt;/font&gt;" style="text;html=1;strokeColor=none;fillColor=none;align=center;verticalAlign=middle;whiteSpace=wrap;rounded=0;fontSize=16;" vertex="1" parent="1">
          <mxGeometry x="100" y="409" width="70" height="30" as="geometry" />
        </mxCell>
        <mxCell id="4rQDGgyVYOWiuucJBH0a-51" value="&lt;b style=&quot;&quot;&gt;&lt;sub style=&quot;&quot;&gt;&lt;font style=&quot;font-size: 15px;&quot;&gt;12&lt;/font&gt;&lt;/sub&gt;&lt;/b&gt;" style="text;html=1;strokeColor=none;fillColor=none;align=center;verticalAlign=middle;whiteSpace=wrap;rounded=0;fontSize=16;" vertex="1" parent="1">
          <mxGeometry x="198" y="407" width="20" height="22" as="geometry" />
        </mxCell>
        <mxCell id="4rQDGgyVYOWiuucJBH0a-52" value="" style="endArrow=none;html=1;rounded=0;strokeWidth=3;" edge="1" parent="1">
          <mxGeometry width="50" height="50" relative="1" as="geometry">
            <mxPoint x="190" y="451" as="sourcePoint" />
            <mxPoint x="200" y="431" as="targetPoint" />
          </mxGeometry>
        </mxCell>
        <mxCell id="4rQDGgyVYOWiuucJBH0a-57" value="" style="endArrow=block;html=1;strokeWidth=2;endFill=1;rounded=0;" edge="1" parent="1">
          <mxGeometry width="50" height="50" relative="1" as="geometry">
            <mxPoint x="80" y="559" as="sourcePoint" />
            <mxPoint x="240" y="559" as="targetPoint" />
          </mxGeometry>
        </mxCell>
        <mxCell id="4rQDGgyVYOWiuucJBH0a-58" value="&lt;font size=&quot;1&quot; style=&quot;&quot;&gt;&lt;b style=&quot;font-size: 18px;&quot;&gt;RAM_CEN&lt;/b&gt;&lt;/font&gt;" style="text;html=1;strokeColor=none;fillColor=none;align=center;verticalAlign=middle;whiteSpace=wrap;rounded=0;fontSize=16;" vertex="1" parent="1">
          <mxGeometry x="130" y="529" width="70" height="30" as="geometry" />
        </mxCell>
        <mxCell id="4rQDGgyVYOWiuucJBH0a-59" value="" style="endArrow=block;html=1;strokeWidth=2;endFill=1;rounded=0;" edge="1" parent="1">
          <mxGeometry width="50" height="50" relative="1" as="geometry">
            <mxPoint x="80" y="620" as="sourcePoint" />
            <mxPoint x="240" y="620" as="targetPoint" />
          </mxGeometry>
        </mxCell>
        <mxCell id="4rQDGgyVYOWiuucJBH0a-60" value="&lt;font size=&quot;1&quot; style=&quot;&quot;&gt;&lt;b style=&quot;font-size: 18px;&quot;&gt;RAM_OEN&lt;/b&gt;&lt;/font&gt;" style="text;html=1;strokeColor=none;fillColor=none;align=center;verticalAlign=middle;whiteSpace=wrap;rounded=0;fontSize=16;" vertex="1" parent="1">
          <mxGeometry x="130" y="590" width="70" height="30" as="geometry" />
        </mxCell>
        <mxCell id="4rQDGgyVYOWiuucJBH0a-61" value="" style="endArrow=block;html=1;strokeWidth=2;endFill=1;rounded=0;" edge="1" parent="1">
          <mxGeometry width="50" height="50" relative="1" as="geometry">
            <mxPoint x="80" y="679" as="sourcePoint" />
            <mxPoint x="240" y="679" as="targetPoint" />
          </mxGeometry>
        </mxCell>
        <mxCell id="4rQDGgyVYOWiuucJBH0a-62" value="&lt;font size=&quot;1&quot; style=&quot;&quot;&gt;&lt;b style=&quot;font-size: 18px;&quot;&gt;RAM_WEN&lt;/b&gt;&lt;/font&gt;" style="text;html=1;strokeColor=none;fillColor=none;align=center;verticalAlign=middle;whiteSpace=wrap;rounded=0;fontSize=16;" vertex="1" parent="1">
          <mxGeometry x="130" y="649" width="70" height="30" as="geometry" />
        </mxCell>
        <mxCell id="4rQDGgyVYOWiuucJBH0a-63" value="" style="endArrow=block;html=1;strokeWidth=2;endFill=1;rounded=0;" edge="1" parent="1">
          <mxGeometry width="50" height="50" relative="1" as="geometry">
            <mxPoint x="80" y="738.5" as="sourcePoint" />
            <mxPoint x="240" y="738.5" as="targetPoint" />
          </mxGeometry>
        </mxCell>
        <mxCell id="4rQDGgyVYOWiuucJBH0a-64" value="&lt;font size=&quot;1&quot; style=&quot;&quot;&gt;&lt;b style=&quot;font-size: 18px;&quot;&gt;RAM_UB&lt;/b&gt;&lt;/font&gt;" style="text;html=1;strokeColor=none;fillColor=none;align=center;verticalAlign=middle;whiteSpace=wrap;rounded=0;fontSize=16;" vertex="1" parent="1">
          <mxGeometry x="130" y="708.5" width="70" height="30" as="geometry" />
        </mxCell>
        <mxCell id="4rQDGgyVYOWiuucJBH0a-65" value="" style="endArrow=block;html=1;strokeWidth=2;endFill=1;rounded=0;" edge="1" parent="1">
          <mxGeometry width="50" height="50" relative="1" as="geometry">
            <mxPoint x="80" y="799" as="sourcePoint" />
            <mxPoint x="240" y="799" as="targetPoint" />
          </mxGeometry>
        </mxCell>
        <mxCell id="4rQDGgyVYOWiuucJBH0a-66" value="&lt;font size=&quot;1&quot; style=&quot;&quot;&gt;&lt;b style=&quot;font-size: 18px;&quot;&gt;RAM_LB&lt;/b&gt;&lt;/font&gt;" style="text;html=1;strokeColor=none;fillColor=none;align=center;verticalAlign=middle;whiteSpace=wrap;rounded=0;fontSize=16;" vertex="1" parent="1">
          <mxGeometry x="130" y="769" width="70" height="30" as="geometry" />
        </mxCell>
        <mxCell id="4rQDGgyVYOWiuucJBH0a-125" value="&lt;font size=&quot;1&quot; style=&quot;&quot;&gt;&lt;b style=&quot;font-size: 18px;&quot;&gt;DDR2_CK_P&lt;br&gt;&lt;/b&gt;&lt;/font&gt;" style="text;html=1;strokeColor=none;fillColor=none;align=center;verticalAlign=middle;whiteSpace=wrap;rounded=0;fontSize=16;" vertex="1" parent="1">
          <mxGeometry x="603" y="470" width="70" height="30" as="geometry" />
        </mxCell>
        <mxCell id="4rQDGgyVYOWiuucJBH0a-128" value="" style="endArrow=block;html=1;strokeWidth=6;endFill=1;rounded=0;exitX=1.005;exitY=0.118;exitDx=0;exitDy=0;exitPerimeter=0;" edge="1" parent="1" source="4rQDGgyVYOWiuucJBH0a-1">
          <mxGeometry width="50" height="50" relative="1" as="geometry">
            <mxPoint x="560" y="261" as="sourcePoint" />
            <mxPoint x="760" y="259" as="targetPoint" />
          </mxGeometry>
        </mxCell>
        <mxCell id="4rQDGgyVYOWiuucJBH0a-129" value="&lt;font size=&quot;1&quot; style=&quot;&quot;&gt;&lt;b style=&quot;font-size: 18px;&quot;&gt;DDR2_BA&lt;br&gt;&lt;/b&gt;&lt;/font&gt;" style="text;html=1;strokeColor=none;fillColor=none;align=center;verticalAlign=middle;whiteSpace=wrap;rounded=0;fontSize=16;" vertex="1" parent="1">
          <mxGeometry x="595" y="229" width="70" height="30" as="geometry" />
        </mxCell>
        <mxCell id="4rQDGgyVYOWiuucJBH0a-130" value="&lt;span style=&quot;font-size: 15px;&quot;&gt;&lt;b&gt;3&lt;/b&gt;&lt;/span&gt;" style="text;html=1;strokeColor=none;fillColor=none;align=center;verticalAlign=middle;whiteSpace=wrap;rounded=0;fontSize=16;" vertex="1" parent="1">
          <mxGeometry x="715" y="227" width="20" height="22" as="geometry" />
        </mxCell>
        <mxCell id="4rQDGgyVYOWiuucJBH0a-131" value="" style="endArrow=none;html=1;rounded=0;strokeWidth=3;" edge="1" parent="1">
          <mxGeometry width="50" height="50" relative="1" as="geometry">
            <mxPoint x="707" y="270" as="sourcePoint" />
            <mxPoint x="717" y="250" as="targetPoint" />
          </mxGeometry>
        </mxCell>
        <mxCell id="4rQDGgyVYOWiuucJBH0a-132" value="" style="endArrow=block;html=1;strokeWidth=6;endFill=1;rounded=0;exitX=0.997;exitY=0.049;exitDx=0;exitDy=0;exitPerimeter=0;" edge="1" parent="1" source="4rQDGgyVYOWiuucJBH0a-1">
          <mxGeometry width="50" height="50" relative="1" as="geometry">
            <mxPoint x="560" y="204" as="sourcePoint" />
            <mxPoint x="760" y="200" as="targetPoint" />
          </mxGeometry>
        </mxCell>
        <mxCell id="4rQDGgyVYOWiuucJBH0a-133" value="&lt;font size=&quot;1&quot; style=&quot;&quot;&gt;&lt;b style=&quot;font-size: 18px;&quot;&gt;DDR2_ADDR&lt;br&gt;&lt;/b&gt;&lt;/font&gt;" style="text;html=1;strokeColor=none;fillColor=none;align=center;verticalAlign=middle;whiteSpace=wrap;rounded=0;fontSize=16;" vertex="1" parent="1">
          <mxGeometry x="595" y="172" width="70" height="30" as="geometry" />
        </mxCell>
        <mxCell id="4rQDGgyVYOWiuucJBH0a-134" value="&lt;span style=&quot;font-size: 15px;&quot;&gt;&lt;b&gt;13&lt;/b&gt;&lt;/span&gt;" style="text;html=1;strokeColor=none;fillColor=none;align=center;verticalAlign=middle;whiteSpace=wrap;rounded=0;fontSize=16;" vertex="1" parent="1">
          <mxGeometry x="715" y="170" width="20" height="22" as="geometry" />
        </mxCell>
        <mxCell id="4rQDGgyVYOWiuucJBH0a-135" value="" style="endArrow=none;html=1;rounded=0;strokeWidth=3;" edge="1" parent="1">
          <mxGeometry width="50" height="50" relative="1" as="geometry">
            <mxPoint x="707" y="213" as="sourcePoint" />
            <mxPoint x="717" y="193" as="targetPoint" />
          </mxGeometry>
        </mxCell>
        <mxCell id="4rQDGgyVYOWiuucJBH0a-140" value="" style="endArrow=block;html=1;strokeWidth=2;endFill=1;rounded=0;exitX=0.999;exitY=0.293;exitDx=0;exitDy=0;exitPerimeter=0;" edge="1" parent="1">
          <mxGeometry width="50" height="50" relative="1" as="geometry">
            <mxPoint x="560.0000000000001" y="319.75" as="sourcePoint" />
            <mxPoint x="760.32" y="320" as="targetPoint" />
          </mxGeometry>
        </mxCell>
        <mxCell id="4rQDGgyVYOWiuucJBH0a-141" value="&lt;font size=&quot;1&quot; style=&quot;&quot;&gt;&lt;b style=&quot;font-size: 18px;&quot;&gt;DDR2_RAS_N&lt;br&gt;&lt;/b&gt;&lt;/font&gt;" style="text;html=1;strokeColor=none;fillColor=none;align=center;verticalAlign=middle;whiteSpace=wrap;rounded=0;fontSize=16;" vertex="1" parent="1">
          <mxGeometry x="603.32" y="290" width="70" height="30" as="geometry" />
        </mxCell>
        <mxCell id="4rQDGgyVYOWiuucJBH0a-142" value="" style="endArrow=block;html=1;strokeWidth=2;endFill=1;rounded=0;" edge="1" parent="1">
          <mxGeometry width="50" height="50" relative="1" as="geometry">
            <mxPoint x="560.32" y="381" as="sourcePoint" />
            <mxPoint x="760.32" y="381" as="targetPoint" />
          </mxGeometry>
        </mxCell>
        <mxCell id="4rQDGgyVYOWiuucJBH0a-143" value="&lt;font size=&quot;1&quot; style=&quot;&quot;&gt;&lt;b style=&quot;font-size: 18px;&quot;&gt;DDR2_CAS_N&lt;br&gt;&lt;/b&gt;&lt;/font&gt;" style="text;html=1;strokeColor=none;fillColor=none;align=center;verticalAlign=middle;whiteSpace=wrap;rounded=0;fontSize=16;" vertex="1" parent="1">
          <mxGeometry x="603.32" y="349" width="70" height="30" as="geometry" />
        </mxCell>
        <mxCell id="4rQDGgyVYOWiuucJBH0a-144" value="" style="endArrow=block;html=1;strokeWidth=2;endFill=1;rounded=0;" edge="1" parent="1">
          <mxGeometry width="50" height="50" relative="1" as="geometry">
            <mxPoint x="560.32" y="443" as="sourcePoint" />
            <mxPoint x="760.32" y="443" as="targetPoint" />
          </mxGeometry>
        </mxCell>
        <mxCell id="4rQDGgyVYOWiuucJBH0a-145" value="&lt;font size=&quot;1&quot; style=&quot;&quot;&gt;&lt;b style=&quot;font-size: 18px;&quot;&gt;DDR2_WE_N&lt;br&gt;&lt;/b&gt;&lt;/font&gt;" style="text;html=1;strokeColor=none;fillColor=none;align=center;verticalAlign=middle;whiteSpace=wrap;rounded=0;fontSize=16;" vertex="1" parent="1">
          <mxGeometry x="603.32" y="412" width="70" height="30" as="geometry" />
        </mxCell>
        <mxCell id="4rQDGgyVYOWiuucJBH0a-146" value="" style="endArrow=block;html=1;strokeWidth=2;endFill=1;rounded=0;exitX=0.999;exitY=0.293;exitDx=0;exitDy=0;exitPerimeter=0;" edge="1" parent="1">
          <mxGeometry width="50" height="50" relative="1" as="geometry">
            <mxPoint x="560" y="500" as="sourcePoint" />
            <mxPoint x="760" y="500" as="targetPoint" />
          </mxGeometry>
        </mxCell>
        <mxCell id="4rQDGgyVYOWiuucJBH0a-147" value="&lt;font size=&quot;1&quot; style=&quot;&quot;&gt;&lt;b style=&quot;font-size: 18px;&quot;&gt;DDR2_CK_N&lt;br&gt;&lt;/b&gt;&lt;/font&gt;" style="text;html=1;strokeColor=none;fillColor=none;align=center;verticalAlign=middle;whiteSpace=wrap;rounded=0;fontSize=16;" vertex="1" parent="1">
          <mxGeometry x="603" y="530" width="70" height="30" as="geometry" />
        </mxCell>
        <mxCell id="4rQDGgyVYOWiuucJBH0a-148" value="" style="endArrow=block;html=1;strokeWidth=2;endFill=1;rounded=0;exitX=0.999;exitY=0.293;exitDx=0;exitDy=0;exitPerimeter=0;" edge="1" parent="1">
          <mxGeometry width="50" height="50" relative="1" as="geometry">
            <mxPoint x="560" y="560" as="sourcePoint" />
            <mxPoint x="760" y="560" as="targetPoint" />
          </mxGeometry>
        </mxCell>
        <mxCell id="4rQDGgyVYOWiuucJBH0a-149" value="&lt;font size=&quot;1&quot; style=&quot;&quot;&gt;&lt;b style=&quot;font-size: 18px;&quot;&gt;DDR2_CKE&lt;br&gt;&lt;/b&gt;&lt;/font&gt;" style="text;html=1;strokeColor=none;fillColor=none;align=center;verticalAlign=middle;whiteSpace=wrap;rounded=0;fontSize=16;" vertex="1" parent="1">
          <mxGeometry x="603" y="590" width="70" height="30" as="geometry" />
        </mxCell>
        <mxCell id="4rQDGgyVYOWiuucJBH0a-150" value="" style="endArrow=block;html=1;strokeWidth=2;endFill=1;rounded=0;exitX=0.999;exitY=0.293;exitDx=0;exitDy=0;exitPerimeter=0;" edge="1" parent="1">
          <mxGeometry width="50" height="50" relative="1" as="geometry">
            <mxPoint x="560" y="620" as="sourcePoint" />
            <mxPoint x="760" y="620" as="targetPoint" />
          </mxGeometry>
        </mxCell>
        <mxCell id="4rQDGgyVYOWiuucJBH0a-151" value="&lt;font size=&quot;1&quot; style=&quot;&quot;&gt;&lt;b style=&quot;font-size: 18px;&quot;&gt;DDR2_CS_N&lt;br&gt;&lt;/b&gt;&lt;/font&gt;" style="text;html=1;strokeColor=none;fillColor=none;align=center;verticalAlign=middle;whiteSpace=wrap;rounded=0;fontSize=16;" vertex="1" parent="1">
          <mxGeometry x="603" y="650" width="70" height="30" as="geometry" />
        </mxCell>
        <mxCell id="4rQDGgyVYOWiuucJBH0a-152" value="" style="endArrow=block;html=1;strokeWidth=2;endFill=1;rounded=0;exitX=0.999;exitY=0.293;exitDx=0;exitDy=0;exitPerimeter=0;" edge="1" parent="1">
          <mxGeometry width="50" height="50" relative="1" as="geometry">
            <mxPoint x="560" y="680" as="sourcePoint" />
            <mxPoint x="760" y="680" as="targetPoint" />
          </mxGeometry>
        </mxCell>
        <mxCell id="4rQDGgyVYOWiuucJBH0a-153" value="&lt;font size=&quot;1&quot; style=&quot;&quot;&gt;&lt;b style=&quot;font-size: 18px;&quot;&gt;DDR2_ODT&lt;br&gt;&lt;/b&gt;&lt;/font&gt;" style="text;html=1;strokeColor=none;fillColor=none;align=center;verticalAlign=middle;whiteSpace=wrap;rounded=0;fontSize=16;" vertex="1" parent="1">
          <mxGeometry x="603" y="770" width="70" height="30" as="geometry" />
        </mxCell>
        <mxCell id="4rQDGgyVYOWiuucJBH0a-154" value="" style="endArrow=block;html=1;strokeWidth=2;endFill=1;rounded=0;exitX=0.999;exitY=0.293;exitDx=0;exitDy=0;exitPerimeter=0;" edge="1" parent="1">
          <mxGeometry width="50" height="50" relative="1" as="geometry">
            <mxPoint x="560" y="800" as="sourcePoint" />
            <mxPoint x="760" y="800" as="targetPoint" />
          </mxGeometry>
        </mxCell>
        <mxCell id="4rQDGgyVYOWiuucJBH0a-161" value="" style="endArrow=block;html=1;strokeWidth=6;endFill=1;rounded=0;exitX=1.001;exitY=0.132;exitDx=0;exitDy=0;exitPerimeter=0;" edge="1" parent="1">
          <mxGeometry width="50" height="50" relative="1" as="geometry">
            <mxPoint x="560" y="742" as="sourcePoint" />
            <mxPoint x="760" y="742" as="targetPoint" />
          </mxGeometry>
        </mxCell>
        <mxCell id="4rQDGgyVYOWiuucJBH0a-162" value="&lt;font size=&quot;1&quot; style=&quot;&quot;&gt;&lt;b style=&quot;font-size: 18px;&quot;&gt;DDR2_DM&lt;br&gt;&lt;/b&gt;&lt;/font&gt;" style="text;html=1;strokeColor=none;fillColor=none;align=center;verticalAlign=middle;whiteSpace=wrap;rounded=0;fontSize=16;" vertex="1" parent="1">
          <mxGeometry x="595" y="712" width="70" height="30" as="geometry" />
        </mxCell>
        <mxCell id="4rQDGgyVYOWiuucJBH0a-163" value="&lt;span style=&quot;font-size: 15px;&quot;&gt;&lt;b&gt;2&lt;/b&gt;&lt;/span&gt;" style="text;html=1;strokeColor=none;fillColor=none;align=center;verticalAlign=middle;whiteSpace=wrap;rounded=0;fontSize=16;" vertex="1" parent="1">
          <mxGeometry x="715" y="710" width="20" height="22" as="geometry" />
        </mxCell>
        <mxCell id="4rQDGgyVYOWiuucJBH0a-164" value="" style="endArrow=none;html=1;rounded=0;strokeWidth=3;" edge="1" parent="1">
          <mxGeometry width="50" height="50" relative="1" as="geometry">
            <mxPoint x="707" y="753" as="sourcePoint" />
            <mxPoint x="717" y="733" as="targetPoint" />
          </mxGeometry>
        </mxCell>
        <mxCell id="4rQDGgyVYOWiuucJBH0a-165" value="" style="endArrow=block;html=1;strokeWidth=6;endFill=1;rounded=0;exitX=1.001;exitY=0.132;exitDx=0;exitDy=0;exitPerimeter=0;" edge="1" parent="1">
          <mxGeometry width="50" height="50" relative="1" as="geometry">
            <mxPoint x="560" y="862" as="sourcePoint" />
            <mxPoint x="760" y="862" as="targetPoint" />
          </mxGeometry>
        </mxCell>
        <mxCell id="4rQDGgyVYOWiuucJBH0a-166" value="&lt;font size=&quot;1&quot; style=&quot;&quot;&gt;&lt;b style=&quot;font-size: 18px;&quot;&gt;DDR2_DQ&lt;br&gt;&lt;/b&gt;&lt;/font&gt;" style="text;html=1;strokeColor=none;fillColor=none;align=center;verticalAlign=middle;whiteSpace=wrap;rounded=0;fontSize=16;" vertex="1" parent="1">
          <mxGeometry x="595" y="832" width="70" height="30" as="geometry" />
        </mxCell>
        <mxCell id="4rQDGgyVYOWiuucJBH0a-167" value="&lt;span style=&quot;font-size: 15px;&quot;&gt;&lt;b&gt;16&lt;/b&gt;&lt;/span&gt;" style="text;html=1;strokeColor=none;fillColor=none;align=center;verticalAlign=middle;whiteSpace=wrap;rounded=0;fontSize=16;" vertex="1" parent="1">
          <mxGeometry x="715" y="830" width="20" height="22" as="geometry" />
        </mxCell>
        <mxCell id="4rQDGgyVYOWiuucJBH0a-168" value="" style="endArrow=none;html=1;rounded=0;strokeWidth=3;" edge="1" parent="1">
          <mxGeometry width="50" height="50" relative="1" as="geometry">
            <mxPoint x="707" y="873" as="sourcePoint" />
            <mxPoint x="717" y="853" as="targetPoint" />
          </mxGeometry>
        </mxCell>
        <mxCell id="4rQDGgyVYOWiuucJBH0a-169" value="" style="endArrow=block;html=1;strokeWidth=6;endFill=1;rounded=0;exitX=1.001;exitY=0.132;exitDx=0;exitDy=0;exitPerimeter=0;" edge="1" parent="1">
          <mxGeometry width="50" height="50" relative="1" as="geometry">
            <mxPoint x="560" y="922" as="sourcePoint" />
            <mxPoint x="760" y="922" as="targetPoint" />
          </mxGeometry>
        </mxCell>
        <mxCell id="4rQDGgyVYOWiuucJBH0a-170" value="&lt;font size=&quot;1&quot; style=&quot;&quot;&gt;&lt;b style=&quot;font-size: 18px;&quot;&gt;DDR2_DQS_P&lt;br&gt;&lt;/b&gt;&lt;/font&gt;" style="text;html=1;strokeColor=none;fillColor=none;align=center;verticalAlign=middle;whiteSpace=wrap;rounded=0;fontSize=16;" vertex="1" parent="1">
          <mxGeometry x="599" y="892" width="70" height="30" as="geometry" />
        </mxCell>
        <mxCell id="4rQDGgyVYOWiuucJBH0a-171" value="&lt;span style=&quot;font-size: 15px;&quot;&gt;&lt;b&gt;2&lt;/b&gt;&lt;/span&gt;" style="text;html=1;strokeColor=none;fillColor=none;align=center;verticalAlign=middle;whiteSpace=wrap;rounded=0;fontSize=16;" vertex="1" parent="1">
          <mxGeometry x="715" y="890" width="20" height="22" as="geometry" />
        </mxCell>
        <mxCell id="4rQDGgyVYOWiuucJBH0a-172" value="" style="endArrow=none;html=1;rounded=0;strokeWidth=3;" edge="1" parent="1">
          <mxGeometry width="50" height="50" relative="1" as="geometry">
            <mxPoint x="707" y="933" as="sourcePoint" />
            <mxPoint x="717" y="913" as="targetPoint" />
          </mxGeometry>
        </mxCell>
        <mxCell id="4rQDGgyVYOWiuucJBH0a-173" value="" style="endArrow=block;html=1;strokeWidth=6;endFill=1;rounded=0;exitX=1.001;exitY=0.132;exitDx=0;exitDy=0;exitPerimeter=0;" edge="1" parent="1">
          <mxGeometry width="50" height="50" relative="1" as="geometry">
            <mxPoint x="560" y="982" as="sourcePoint" />
            <mxPoint x="760" y="982" as="targetPoint" />
          </mxGeometry>
        </mxCell>
        <mxCell id="4rQDGgyVYOWiuucJBH0a-174" value="&lt;font size=&quot;1&quot; style=&quot;&quot;&gt;&lt;b style=&quot;font-size: 18px;&quot;&gt;DDR2_DQS_N&lt;br&gt;&lt;/b&gt;&lt;/font&gt;" style="text;html=1;strokeColor=none;fillColor=none;align=center;verticalAlign=middle;whiteSpace=wrap;rounded=0;fontSize=16;" vertex="1" parent="1">
          <mxGeometry x="597" y="952" width="70" height="30" as="geometry" />
        </mxCell>
        <mxCell id="4rQDGgyVYOWiuucJBH0a-175" value="&lt;span style=&quot;font-size: 15px;&quot;&gt;&lt;b&gt;2&lt;/b&gt;&lt;/span&gt;" style="text;html=1;strokeColor=none;fillColor=none;align=center;verticalAlign=middle;whiteSpace=wrap;rounded=0;fontSize=16;" vertex="1" parent="1">
          <mxGeometry x="715" y="950" width="20" height="22" as="geometry" />
        </mxCell>
        <mxCell id="4rQDGgyVYOWiuucJBH0a-176" value="" style="endArrow=none;html=1;rounded=0;strokeWidth=3;" edge="1" parent="1">
          <mxGeometry width="50" height="50" relative="1" as="geometry">
            <mxPoint x="707" y="993" as="sourcePoint" />
            <mxPoint x="717" y="973" as="targetPoint" />
          </mxGeometry>
        </mxCell>
      </root>
    </mxGraphModel>
  </diagram>
</mxfile>
